<?xml version="1.0" encoding="UTF-8" standalone="no"?>
<!DOCTYPE svg PUBLIC "-//W3C//DTD SVG 1.1//EN" "http://www.w3.org/Graphics/SVG/1.1/DTD/svg11.dtd"
[
<!ATTLIST g
  xmlns:vectornator CDATA #FIXED "http://vectornator.io"
  vectornator:layerName CDATA #IMPLIED >
<!ATTLIST g
  xmlns:vectornator CDATA #FIXED "http://vectornator.io"
  vectornator:mask CDATA #IMPLIED >
<!ATTLIST text
  xmlns:vectornator CDATA #FIXED "http://vectornator.io"
  vectornator:width CDATA #IMPLIED >

<!ATTLIST path
  xmlns:vectornator CDATA #FIXED "http://vectornator.io"
  vectornator:blendMode CDATA #IMPLIED >
<!ATTLIST path
  xmlns:vectornator CDATA #FIXED "http://vectornator.io"
  vectornator:shadowColor CDATA #IMPLIED >
<!ATTLIST path
  xmlns:vectornator CDATA #FIXED "http://vectornator.io"
  vectornator:shadowOpacity CDATA #IMPLIED >
<!ATTLIST path
  xmlns:vectornator CDATA #FIXED "http://vectornator.io"
  vectornator:shadowRadius CDATA #IMPLIED >
<!ATTLIST path
  xmlns:vectornator CDATA #FIXED "http://vectornator.io"
  vectornator:shadowOffset CDATA #IMPLIED >
<!ATTLIST path
  xmlns:vectornator CDATA #FIXED "http://vectornator.io"
  vectornator:shadowAngle CDATA #IMPLIED >

<!ATTLIST image
  xmlns:vectornator CDATA #FIXED "http://vectornator.io"
  vectornator:blendMode CDATA #IMPLIED >
<!ATTLIST image
  xmlns:vectornator CDATA #FIXED "http://vectornator.io"
  vectornator:shadowColor CDATA #IMPLIED >
<!ATTLIST image
  xmlns:vectornator CDATA #FIXED "http://vectornator.io"
  vectornator:shadowOpacity CDATA #IMPLIED >
<!ATTLIST image
  xmlns:vectornator CDATA #FIXED "http://vectornator.io"
  vectornator:shadowRadius CDATA #IMPLIED >
<!ATTLIST image
  xmlns:vectornator CDATA #FIXED "http://vectornator.io"
  vectornator:shadowOffset CDATA #IMPLIED >
<!ATTLIST image
  xmlns:vectornator CDATA #FIXED "http://vectornator.io"
  vectornator:shadowAngle CDATA #IMPLIED >

<!ATTLIST g
  xmlns:vectornator CDATA #FIXED "http://vectornator.io"
  vectornator:blendMode CDATA #IMPLIED >
<!ATTLIST g
  xmlns:vectornator CDATA #FIXED "http://vectornator.io"
  vectornator:shadowColor CDATA #IMPLIED >
<!ATTLIST g
  xmlns:vectornator CDATA #FIXED "http://vectornator.io"
  vectornator:shadowOpacity CDATA #IMPLIED >
<!ATTLIST g
  xmlns:vectornator CDATA #FIXED "http://vectornator.io"
  vectornator:shadowRadius CDATA #IMPLIED >
<!ATTLIST g
  xmlns:vectornator CDATA #FIXED "http://vectornator.io"
  vectornator:shadowOffset CDATA #IMPLIED >
<!ATTLIST g
  xmlns:vectornator CDATA #FIXED "http://vectornator.io"
  vectornator:shadowAngle CDATA #IMPLIED >

<!ENTITY % SVG.filter.extra.content  "| feDropShadow" >
<!ELEMENT feDropShadow EMPTY>
<!ATTLIST feDropShadow
  xmlns:svg CDATA #FIXED "http://www.w3.org/Graphics/SVG/1.1/DTD/svg11.dtd"
  dx CDATA #IMPLIED>
<!ATTLIST feDropShadow
  xmlns:svg CDATA #FIXED "http://www.w3.org/Graphics/SVG/1.1/DTD/svg11.dtd"
  dy CDATA #IMPLIED>
<!ATTLIST feDropShadow
  xmlns:svg CDATA #FIXED "http://www.w3.org/Graphics/SVG/1.1/DTD/svg11.dtd"
  stdDeviation CDATA #IMPLIED>
<!ATTLIST feDropShadow
  xmlns:svg CDATA #FIXED "http://www.w3.org/Graphics/SVG/1.1/DTD/svg11.dtd"
  flood-opacity CDATA #IMPLIED>
<!ATTLIST feDropShadow
  xmlns:svg CDATA #FIXED "http://www.w3.org/Graphics/SVG/1.1/DTD/svg11.dtd"
  in CDATA #IMPLIED>
<!ATTLIST feDropShadow
  xmlns:svg CDATA #FIXED "http://www.w3.org/Graphics/SVG/1.1/DTD/svg11.dtd"
  result CDATA #IMPLIED>
<!ATTLIST feDropShadow
  xmlns:svg CDATA #FIXED "http://www.w3.org/Graphics/SVG/1.1/DTD/svg11.dtd"
  flood-color CDATA #IMPLIED>
]
>
<!-- Created with Vectornator (http://vectornator.io/) -->
<svg height="100%" stroke-miterlimit="10" style="fill-rule:nonzero;clip-rule:evenodd;stroke-linecap:round;stroke-linejoin:round;" version="1.1" viewBox="0 0 1186 390" width="100%" xml:space="preserve" xmlns="http://www.w3.org/2000/svg" xmlns:vectornator="http://vectornator.io" xmlns:xlink="http://www.w3.org/1999/xlink">
<defs>
<filter color-interpolation-filters="sRGB" filterUnits="userSpaceOnUse" height="153.167" id="Filter" width="802" x="392" y="40.8333">
<feDropShadow dx="-2.93856e-05" dy="8" flood-color="#000000" flood-opacity="1" in="SourceGraphic" result="Shadow" stdDeviation="8"/>
</filter>
<filter color-interpolation-filters="sRGB" filterUnits="userSpaceOnUse" height="136.55" id="Filter_2" width="911" x="8.99997" y="107.45">
<feDropShadow dx="-2.93856e-05" dy="8" flood-color="#000000" flood-opacity="1" in="SourceGraphic" result="Shadow" stdDeviation="8"/>
</filter>
<filter color-interpolation-filters="sRGB" filterUnits="userSpaceOnUse" height="84.5217" id="Filter_3" width="155.583" x="46" y="173.478">
<feDropShadow dx="-2.93856e-05" dy="8" flood-color="#000000" flood-opacity="1" in="SourceGraphic" result="Shadow" stdDeviation="8"/>
</filter>
<filter color-interpolation-filters="sRGB" filterUnits="userSpaceOnUse" height="45.25" id="Filter_4" width="40.8857" x="1007.4" y="190.75">
<feDropShadow dx="-2.93856e-05" dy="8" flood-color="#000000" flood-opacity="1" in="SourceGraphic" result="Shadow" stdDeviation="8"/>
</filter>
<filter color-interpolation-filters="sRGB" filterUnits="userSpaceOnUse" height="124.956" id="Filter_5" width="58" x="972" y="191.444">
<feDropShadow dx="-2.93856e-05" dy="8" flood-color="#000000" flood-opacity="1" in="SourceGraphic" result="Shadow" stdDeviation="8"/>
</filter>
<filter color-interpolation-filters="sRGB" filterUnits="userSpaceOnUse" height="45" id="Filter_6" width="42.4" x="950" y="192">
<feDropShadow dx="-2.93856e-05" dy="8" flood-color="#000000" flood-opacity="1" in="SourceGraphic" result="Shadow" stdDeviation="8"/>
</filter>
<filter color-interpolation-filters="sRGB" filterUnits="userSpaceOnUse" height="45.1429" id="Filter_7" width="43" x="273" y="195.857">
<feDropShadow dx="-2.93856e-05" dy="8" flood-color="#000000" flood-opacity="1" in="SourceGraphic" result="Shadow" stdDeviation="8"/>
</filter>
<filter color-interpolation-filters="sRGB" filterUnits="userSpaceOnUse" height="127.556" id="Filter_8" width="58" x="295" y="195.444">
<feDropShadow dx="-2.93856e-05" dy="8" flood-color="#000000" flood-opacity="1" in="SourceGraphic" result="Shadow" stdDeviation="8"/>
</filter>
<filter color-interpolation-filters="sRGB" filterUnits="userSpaceOnUse" height="126.222" id="Filter_9" width="56.5385" x="324.462" y="196.778">
<feDropShadow dx="-2.93856e-05" dy="8" flood-color="#000000" flood-opacity="1" in="SourceGraphic" result="Shadow" stdDeviation="8"/>
</filter>
<filter color-interpolation-filters="sRGB" filterUnits="userSpaceOnUse" height="45.6" id="Filter_10" width="42.4" x="359" y="196.4">
<feDropShadow dx="-2.93856e-05" dy="8" flood-color="#000000" flood-opacity="1" in="SourceGraphic" result="Shadow" stdDeviation="8"/>
</filter>
<filter color-interpolation-filters="sRGB" filterUnits="userSpaceOnUse" height="125" id="Filter_11" width="56" x="561" y="197">
<feDropShadow dx="-2.93856e-05" dy="8" flood-color="#000000" flood-opacity="1" in="SourceGraphic" result="Shadow" stdDeviation="8"/>
</filter>
<filter color-interpolation-filters="sRGB" filterUnits="userSpaceOnUse" height="126" id="Filter_12" width="129" x="170" y="199">
<feDropShadow dx="-2.93856e-05" dy="8" flood-color="#000000" flood-opacity="1" in="SourceGraphic" result="Shadow" stdDeviation="8"/>
</filter>
<filter color-interpolation-filters="sRGB" filterUnits="userSpaceOnUse" height="121.025" id="Filter_13" width="98" x="753" y="199.375">
<feDropShadow dx="-2.93856e-05" dy="8" flood-color="#000000" flood-opacity="1" in="SourceGraphic" result="Shadow" stdDeviation="8"/>
</filter>
<filter color-interpolation-filters="sRGB" filterUnits="userSpaceOnUse" height="121" id="Filter_14" width="98.3333" x="444" y="201">
<feDropShadow dx="-2.93856e-05" dy="8" flood-color="#000000" flood-opacity="1" in="SourceGraphic" result="Shadow" stdDeviation="8"/>
</filter>
<filter color-interpolation-filters="sRGB" filterUnits="userSpaceOnUse" height="112" id="Filter_15" width="61" x="868" y="207">
<feDropShadow dx="-2.93856e-05" dy="8" flood-color="#000000" flood-opacity="1" in="SourceGraphic" result="Shadow" stdDeviation="8"/>
</filter>
<filter color-interpolation-filters="sRGB" filterUnits="userSpaceOnUse" height="94" id="Filter_16" width="84" x="1028" y="221">
<feDropShadow dx="-2.93856e-05" dy="8" flood-color="#000000" flood-opacity="1" in="SourceGraphic" result="Shadow" stdDeviation="8"/>
</filter>
<filter color-interpolation-filters="sRGB" filterUnits="userSpaceOnUse" height="93.6667" id="Filter_17" width="57" x="1001" y="222">
<feDropShadow dx="-2.93856e-05" dy="8" flood-color="#000000" flood-opacity="1" in="SourceGraphic" result="Shadow" stdDeviation="8"/>
</filter>
<filter color-interpolation-filters="sRGB" filterUnits="userSpaceOnUse" height="93.9556" id="Filter_18" width="57" x="944" y="223.444">
<feDropShadow dx="-2.93856e-05" dy="8" flood-color="#000000" flood-opacity="1" in="SourceGraphic" result="Shadow" stdDeviation="8"/>
</filter>
<filter color-interpolation-filters="sRGB" filterUnits="userSpaceOnUse" height="94.625" id="Filter_19" width="56" x="353" y="228">
<feDropShadow dx="-2.93856e-05" dy="8" flood-color="#000000" flood-opacity="1" in="SourceGraphic" result="Shadow" stdDeviation="8"/>
</filter>
<filter color-interpolation-filters="sRGB" filterUnits="userSpaceOnUse" height="96" id="Filter_20" width="63.5556" x="383.444" y="228">
<feDropShadow dx="-2.93856e-05" dy="8" flood-color="#000000" flood-opacity="1" in="SourceGraphic" result="Shadow" stdDeviation="8"/>
</filter>
<filter color-interpolation-filters="sRGB" filterUnits="userSpaceOnUse" height="94.0714" id="Filter_21" width="82" x="585" y="229.5">
<feDropShadow dx="-2.93856e-05" dy="8" flood-color="#000000" flood-opacity="1" in="SourceGraphic" result="Shadow" stdDeviation="8"/>
</filter>
<filter color-interpolation-filters="sRGB" filterUnits="userSpaceOnUse" height="93" id="Filter_22" width="80.5556" x="635.444" y="229">
<feDropShadow dx="-2.93856e-05" dy="8" flood-color="#000000" flood-opacity="1" in="SourceGraphic" result="Shadow" stdDeviation="8"/>
</filter>
<filter color-interpolation-filters="sRGB" filterUnits="userSpaceOnUse" height="94.8" id="Filter_23" width="70.25" x="826.75" y="225.6">
<feDropShadow dx="-2.93856e-05" dy="8" flood-color="#000000" flood-opacity="1" in="SourceGraphic" result="Shadow" stdDeviation="8"/>
</filter>
<filter color-interpolation-filters="sRGB" filterUnits="userSpaceOnUse" height="94.7222" id="Filter_24" width="70" x="688" y="227.5">
<feDropShadow dx="-2.93856e-05" dy="8" flood-color="#000000" flood-opacity="1" in="SourceGraphic" result="Shadow" stdDeviation="8"/>
</filter>
<filter color-interpolation-filters="sRGB" filterUnits="userSpaceOnUse" height="95.3333" id="Filter_25" width="69.6667" x="518.333" y="228.667">
<feDropShadow dx="-2.93856e-05" dy="8" flood-color="#000000" flood-opacity="1" in="SourceGraphic" result="Shadow" stdDeviation="8"/>
</filter>
<filter color-interpolation-filters="sRGB" filterUnits="userSpaceOnUse" height="94.6667" id="Filter_26" width="74.6" x="899.4" y="224.333">
<feDropShadow dx="-2.93856e-05" dy="8" flood-color="#000000" flood-opacity="1" in="SourceGraphic" result="Shadow" stdDeviation="8"/>
</filter>
<filter color-interpolation-filters="sRGB" filterUnits="userSpaceOnUse" height="123.1" id="Filter_27" width="77.55" x="1084.45" y="219.4">
<feDropShadow dx="-2.93856e-05" dy="8" flood-color="#000000" flood-opacity="1" in="SourceGraphic" result="Shadow" stdDeviation="8"/>
</filter>
<filter color-interpolation-filters="sRGB" filterUnits="userSpaceOnUse" height="48.4" id="Filter_28" width="496" x="362" y="316">
<feDropShadow dx="-2.93856e-05" dy="8" flood-color="#000000" flood-opacity="1" in="SourceGraphic" result="Shadow" stdDeviation="8"/>
</filter>
<filter color-interpolation-filters="sRGB" filterUnits="userSpaceOnUse" height="94.625" id="Filter_29" width="56" x="267.292" y="228.931">
<feDropShadow dx="-2.93856e-05" dy="8" flood-color="#000000" flood-opacity="1" in="SourceGraphic" result="Shadow" stdDeviation="8"/>
</filter>
</defs>
<clipPath id="ArtboardFrame">
<rect height="390" width="1186" x="0" y="0"/>
</clipPath>
<g clip-path="url(#ArtboardFrame)" id="Layer-1" vectornator:layerName="Layer 1">
<path d="M634.5 53C612.833 56.3333 593.333 60.5 576 65.5C558.667 70.5 535.667 78.3333 507 89C478.333 99.6667 455 109 437 117C419 125 409.667 129.667 409 131C408.667 131.667 408.333 132.333 408 133C420.5 128.5 433 124 445.5 119.5C470.5 110.5 494.333 102.667 517 96C539.667 89.3333 563 83.3333 587 78C611 72.6667 631.333 69.3333 648 68C664.667 66.6667 684 66.5 706 67.5C728 68.5 756.5 71.5 791.5 76.5C826.5 81.5 880.333 92.1667 953 108.5C1025.67 124.833 1065.67 134.333 1073 137C1080.33 139.667 1084 141.333 1084 142C1084 142.667 1083.33 143.167 1082 143.5C1080.67 143.833 1076.83 144 1070.5 144C1064.17 144 1052 142.667 1034 140C1016 137.333 993.167 136 965.5 136C937.833 136 915.667 137.167 899 139.5C882.333 141.833 861.333 145.833 836 151.5C810.667 157.167 786.667 161.167 764 163.5C741.333 165.833 730 167.5 730 168.5C730 169 730 169.5 730 170C743.167 169.333 756.333 168.667 769.5 168C795.833 166.667 824.667 163.5 856 158.5C887.333 153.5 913.167 150.667 933.5 150C953.833 149.333 967.333 149 974 149C980.667 149 994 150.833 1014 154.5C1034 158.167 1051 160.167 1065 160.5C1079 160.833 1088.83 160.333 1094.5 159C1100.17 157.667 1108.5 154.333 1119.5 149C1130.5 143.667 1139.33 138.667 1146 134C1152.67 129.333 1158.83 124.167 1164.5 118.5C1170.17 112.833 1174 108.167 1176 104.5C1178 100.833 1178.5 98.6667 1177.5 98C1176.5 97.3333 1173.17 99.1667 1167.5 103.5C1161.83 107.833 1155.67 111.333 1149 114C1142.33 116.667 1132.83 118.167 1120.5 118.5C1108.17 118.833 1093 117.5 1075 114.5C1057 111.5 1031 105.5 997 96.5C963 87.5 929.167 79.6667 895.5 73C861.833 66.3333 828.333 60.8333 795 56.5C761.667 52.1667 732 49.6667 706 49C680 48.3333 656.167 49.6667 634.5 53Z" fill="#000000" fill-rule="evenodd" filter="url(#Filter)" stroke="none" vectornator:shadowAngle="1.5708" vectornator:shadowColor="#000000" vectornator:shadowOffset="8" vectornator:shadowOpacity="1" vectornator:shadowRadius="16"/>
<path d="M869.5 119.5C851.167 122.5 830 125.333 806 128C782 130.667 769.5 132.333 768.5 133C767.5 133.667 752.5 135.167 723.5 137.5C694.5 139.833 625.833 140.833 517.5 140.5C409.167 140.167 341.5 141.167 314.5 143.5C287.5 145.833 262.167 149 238.5 153C214.833 157 190.667 162.167 166 168.5C141.333 174.833 117.5 182 94.5 190C71.5 198 55 204.5 45 209.5C35 214.5 29.0157 216.307 27.5 217C26.1529 217.616 25 218 25 218.5C25 219 25 219.5 25 220C26.3333 219.833 27.6667 219.667 29 219.5C31.6667 219.167 41.5 216 58.5 210C75.5 204 94.1667 198.5 114.5 193.5C134.833 188.5 162.833 183 198.5 177C234.167 171 260.833 167.167 278.5 165.5C296.167 163.833 315 162.667 335 162C355 161.333 404 161.333 482 162C560 162.667 612.167 162.5 638.5 161.5C664.833 160.5 693 157.833 723 153.5C753 149.167 784.167 143.833 816.5 137.5C848.833 131.167 871 126.5 883 123.5C895 120.5 901.5 118.5 902.5 117.5C903 117 903.5 116.5 904 116C902.833 115.833 901.667 115.667 900.5 115.5C898.167 115.167 887.833 116.5 869.5 119.5Z" fill="#000000" fill-rule="evenodd" filter="url(#Filter_2)" stroke="none" vectornator:shadowAngle="1.5708" vectornator:shadowColor="#000000" vectornator:shadowOffset="8" vectornator:shadowOpacity="1" vectornator:shadowRadius="16"/>
<path d="M148 192C126 199.333 107.833 206.5 93.5 213.5C79.1667 220.5 70.6667 224.833 68 226.5C65.3333 228.167 63.6667 229.833 63 231.5C62.6667 232.333 62.3333 233.167 62 234C64.1667 233.833 66.3333 233.667 68.5 233.5C72.8333 233.167 88.3333 229.667 115 223C141.667 216.333 157.667 211.333 163 208C168.333 204.667 173.333 200.667 178 196C182.667 191.333 185.167 187.833 185.5 185.5C185.833 183.167 185.167 181.833 183.5 181.5C181.833 181.167 170 184.667 148 192Z" fill="#000000" fill-rule="evenodd" filter="url(#Filter_3)" stroke="none" vectornator:shadowAngle="1.5708" vectornator:shadowColor="#000000" vectornator:shadowOffset="8" vectornator:shadowOpacity="1" vectornator:shadowRadius="16"/>
<path d="M1026 199.5C1024.67 200.5 1023.83 202 1023.5 204C1023.17 206 1023.67 207.833 1025 209.5C1026.33 211.167 1027.67 212 1029 212C1030.33 212 1031.33 210.167 1032 206.5C1032.67 202.833 1032.17 200.5 1030.5 199.5C1028.83 198.5 1027.33 198.5 1026 199.5Z" fill="#000000" fill-rule="evenodd" filter="url(#Filter_4)" stroke="none" vectornator:shadowAngle="1.5708" vectornator:shadowColor="#000000" vectornator:shadowOffset="8" vectornator:shadowOpacity="1" vectornator:shadowRadius="16"/>
<path d="M995 203C990.333 205.667 988 207.333 988 208C988 208.333 988 208.667 988 209C989 209 990 209 991 209C993 209 994.333 209.5 995 210.5C995.667 211.5 996.167 224.167 996.5 248.5C996.833 272.833 996.5 285.667 995.5 287C994.5 288.333 993.333 289.167 992 289.5C991.333 289.667 990.667 289.833 990 290C990.167 290.5 990.333 291 990.5 291.5C990.833 292.5 994.833 292.667 1002.5 292C1006.33 291.667 1010.17 291.333 1014 291C1012.67 290 1011.33 289 1010 288C1007.33 286 1005.83 274.333 1005.5 253C1005.17 231.667 1004.83 217.5 1004.5 210.5C1004.17 203.5 1003.67 199.833 1003 199.5C1002.33 199.167 999.667 200.333 995 203Z" fill="#000000" fill-rule="evenodd" filter="url(#Filter_5)" stroke="none" vectornator:shadowAngle="1.5708" vectornator:shadowColor="#000000" vectornator:shadowOffset="8" vectornator:shadowOpacity="1" vectornator:shadowRadius="16"/>
<path d="M967.5 201.5C966.5 202.5 966 204 966 206C966 208 966.5 209.667 967.5 211C968.5 212.333 970 213 972 213C974 213 975.333 211.333 976 208C976.667 204.667 976.5 202.5 975.5 201.5C974.5 200.5 973.167 200 971.5 200C969.833 200 968.5 200.5 967.5 201.5Z" fill="#000000" fill-rule="evenodd" filter="url(#Filter_6)" stroke="none" vectornator:shadowAngle="1.5708" vectornator:shadowColor="#000000" vectornator:shadowOffset="8" vectornator:shadowOpacity="1" vectornator:shadowRadius="16"/>
<path d="M291 204.5C289.667 205.5 289 207.167 289 209.5C289 211.833 289.5 213.667 290.5 215C291.5 216.333 292.833 217 294.5 217C296.167 217 297.5 216.333 298.5 215C299.5 213.667 300 212 300 210C300 208 298.833 206.333 296.5 205C294.167 203.667 292.333 203.5 291 204.5Z" fill="#000000" fill-rule="evenodd" filter="url(#Filter_7)" stroke="none" vectornator:shadowAngle="1.5708" vectornator:shadowColor="#000000" vectornator:shadowOffset="8" vectornator:shadowOpacity="1" vectornator:shadowRadius="16"/>
<path d="M318 207C313.333 209.667 311 211.333 311 212C311 212.333 311 212.667 311 213C311.833 213 312.667 213 313.5 213C315.167 213 316.5 213.5 317.5 214.5C318.5 215.5 319.167 228.667 319.5 254C319.833 279.333 319 292.5 317 293.5C315 294.5 313.833 295.667 313.5 297C313.333 297.667 313.167 298.333 313 299C317 298.833 321 298.667 325 298.5C333 298.167 337 297.667 337 297C337 296.333 335.833 295.667 333.5 295C331.167 294.333 329.667 292.667 329 290C328.333 287.333 328 272.333 328 245C328 217.667 327.5 203.833 326.5 203.5C325.5 203.167 322.667 204.333 318 207Z" fill="#000000" fill-rule="evenodd" filter="url(#Filter_8)" stroke="none" vectornator:shadowAngle="1.5708" vectornator:shadowColor="#000000" vectornator:shadowOffset="8" vectornator:shadowOpacity="1" vectornator:shadowRadius="16"/>
<path d="M346 207.5C342 209.833 340.167 211.5 340.5 212.5C340.833 213.5 341.667 213.833 343 213.5C344.333 213.167 345.333 213.333 346 214C346.667 214.667 347.167 216 347.5 218C347.833 220 348 232.833 348 256.5C348 280.167 347.667 292.5 347 293.5C346.333 294.5 345.167 295.167 343.5 295.5C341.833 295.833 341 296.333 341 297C341 297.667 345 298.167 353 298.5C357 298.667 361 298.833 365 299C363.667 297.5 362.333 296 361 294.5C358.333 291.5 357 276 357 248C357 220 356.167 205.667 354.5 205C352.833 204.333 350 205.167 346 207.5Z" fill="#000000" fill-rule="evenodd" filter="url(#Filter_9)" stroke="none" vectornator:shadowAngle="1.5708" vectornator:shadowColor="#000000" vectornator:shadowOffset="8" vectornator:shadowOpacity="1" vectornator:shadowRadius="16"/>
<path d="M377 206C375.667 207.333 375 209 375 211C375 213 375.5 214.667 376.5 216C377.5 217.333 378.833 218 380.5 218C382.167 218 383.5 216.5 384.5 213.5C385.5 210.5 385.667 208.333 385 207C384.333 205.667 383.167 204.833 381.5 204.5C379.833 204.167 378.333 204.667 377 206Z" fill="#000000" fill-rule="evenodd" filter="url(#Filter_10)" stroke="none" vectornator:shadowAngle="1.5708" vectornator:shadowColor="#000000" vectornator:shadowOffset="8" vectornator:shadowOpacity="1" vectornator:shadowRadius="16"/>
<path d="M583 208.5C579 210.833 577 212.5 577 213.5C577 214 577 214.5 577 215C577.833 214.833 578.667 214.667 579.5 214.5C581.167 214.167 582.333 214.333 583 215C583.667 215.667 584.167 221.833 584.5 233.5C584.833 245.167 585 257.667 585 271C585 284.333 584.667 291.5 584 292.5C583.333 293.5 582.167 294.167 580.5 294.5C578.833 294.833 578 295.5 578 296.5C578 297 578 297.5 578 298C581.833 297.833 585.667 297.667 589.5 297.5C593.333 297.333 597.167 297.167 601 297C599.667 296 598.333 295 597 294C594.333 292 592.833 276.667 592.5 248C592.333 233.667 592.167 219.333 592 205C591.5 205 591 205 590.5 205C589.5 205 587 206.167 583 208.5Z" fill="#000000" fill-rule="evenodd" filter="url(#Filter_11)" stroke="none" vectornator:shadowAngle="1.5708" vectornator:shadowColor="#000000" vectornator:shadowOffset="8" vectornator:shadowOpacity="1" vectornator:shadowRadius="16"/>
<path d="M186 208.5C186 209.5 186.667 210.167 188 210.5C189.333 210.833 190.667 211.833 192 213.5C193.333 215.167 197.833 230 205.5 258C213.167 286 217.667 300 219 300C220.333 300 221.667 296.167 223 288.5C224.333 280.833 226.667 271.833 230 261.5C231.667 256.333 233.333 251.167 235 246C237.5 255.167 240 264.333 242.5 273.5C247.5 291.833 250.5 301 251.5 301C252.5 301 256.667 286.833 264 258.5C271.333 230.167 276.333 214.667 279 212C280.333 210.667 281.667 209.333 283 208C279.333 208 275.667 208 272 208C268.333 208 264.667 208 261 208C261.167 208.5 261.333 209 261.5 209.5C261.833 210.5 263.167 211.333 265.5 212C267.833 212.667 269 214.5 269 217.5C269 220.5 266.667 230.833 262 248.5C259.667 257.333 257.333 266.167 255 275C252.333 266 249.667 257 247 248C241.667 230 239 219.667 239 217C239 214.333 240.333 212.333 243 211C244.333 210.333 245.667 209.667 247 209C246.667 208.667 246.333 208.333 246 208C245.333 207.333 240.5 207.167 231.5 207.5C222.5 207.833 218 208.333 218 209C218 209.667 219.333 210.667 222 212C224.667 213.333 227 217 229 223C231 229 230.167 239.167 226.5 253.5C224.667 260.667 222.833 267.833 221 275C218.333 265.667 215.667 256.333 213 247C207.667 228.333 205.167 217.833 205.5 215.5C205.833 213.167 207 211.667 209 211C211 210.333 212 209.5 212 208.5C212 208 212 207.5 212 207C207.667 207 203.333 207 199 207C194.667 207 190.333 207 186 207C186 207.5 186 208 186 208.5Z" fill="#000000" fill-rule="evenodd" filter="url(#Filter_12)" stroke="none" vectornator:shadowAngle="1.5708" vectornator:shadowColor="#000000" vectornator:shadowOffset="8" vectornator:shadowOpacity="1" vectornator:shadowRadius="16"/>
<path d="M780.5 207.5C772.833 207.833 769 208.5 769 209.5C769 210 769 210.5 769 211C769.833 211 770.667 211 771.5 211C773.167 211 774.667 211.667 776 213C777.333 214.333 778.167 216.667 778.5 220C778.833 223.333 779 235.5 779 256.5C779 277.5 778.333 288.833 777 290.5C775.667 292.167 774 293.167 772 293.5C771 293.667 770 293.833 769 294C769.333 294.5 769.667 295 770 295.5C770.667 296.5 777.667 296.667 791 296C804.333 295.333 813.5 293.333 818.5 290C823.5 286.667 827.5 281.667 830.5 275C833.5 268.333 835 260.5 835 251.5C835 242.5 833.833 235.167 831.5 229.5C829.167 223.833 826.833 219.667 824.5 217C822.167 214.333 820 212.5 818 211.5C816 210.5 811.167 209.5 803.5 208.5C795.833 207.5 788.167 207.167 780.5 207.5ZM795.75 213.5C797.417 213.5 799.333 213.667 801.5 214C805.833 214.667 809.667 216.667 813 220C816.333 223.333 819 228.167 821 234.5C823 240.833 823.667 248.667 823 258C822.333 267.333 820 274.667 816 280C812 285.333 808.667 288.5 806 289.5C803.333 290.5 799.667 290.667 795 290C790.333 289.333 788 276.667 788 252C788 227.333 789.167 214.667 791.5 214C792.667 213.667 794.083 213.5 795.75 213.5Z" fill="#000000" fill-rule="evenodd" filter="url(#Filter_13)" stroke="none" vectornator:shadowAngle="1.5708" vectornator:shadowColor="#000000" vectornator:shadowOffset="8" vectornator:shadowOpacity="1" vectornator:shadowRadius="16"/>
<path d="M460 209C460 209.5 460 210 460 210.5C460 211 460 211.5 460 212C460.833 212 461.667 212 462.5 212C464.167 212 465.667 212.833 467 214.5C468.333 216.167 469.167 224 469.5 238C469.833 252 470 264 470 274C470 284 469.5 289.833 468.5 291.5C467.5 293.167 466 294.167 464 294.5C462 294.833 460.833 295.5 460.5 296.5C460.333 297 460.167 297.5 460 298C466.5 298 473 298 479.5 298C492.5 298 500.833 297.333 504.5 296C508.167 294.667 511.5 292.667 514.5 290C517.5 287.333 520 284.167 522 280.5C524 276.833 525.333 269.833 526 259.5C526.667 249.167 526.333 241.333 525 236C523.667 230.667 521.333 225.833 518 221.5C514.667 217.167 511.167 214.167 507.5 212.5C503.833 210.833 495 209.833 481 209.5C474 209.333 467 209.167 460 209ZM488.5 215C492.833 215 496.5 215.833 499.5 217.5C502.5 219.167 505.333 222.167 508 226.5C510.667 230.833 512.5 235.167 513.5 239.5C514.5 243.833 515 249.333 515 256C515 262.667 514.5 267.833 513.5 271.5C512.5 275.167 510.667 278.833 508 282.5C505.333 286.167 502.333 288.833 499 290.5C495.667 292.167 491.667 292.667 487 292C482.333 291.333 479.833 278.667 479.5 254C479.167 229.333 479.5 216.667 480.5 216C481.5 215.333 484.167 215 488.5 215Z" fill="#000000" fill-rule="evenodd" filter="url(#Filter_14)" stroke="none" vectornator:shadowAngle="1.5708" vectornator:shadowColor="#000000" vectornator:shadowOffset="8" vectornator:shadowOpacity="1" vectornator:shadowRadius="16"/>
<path d="M894.5 222.5C892.833 227.5 890.667 231.5 888 234.5C886.667 236 885.333 237.5 884 239C885.167 239.167 886.333 239.333 887.5 239.5C889.833 239.833 891.167 247.667 891.5 263C891.833 278.333 892.5 287.167 893.5 289.5C894.5 291.833 896.167 293.5 898.5 294.5C900.833 295.5 903.333 295 906 293C908.667 291 910.5 288.833 911.5 286.5C912 285.333 912.5 284.167 913 283C912.5 282.833 912 282.667 911.5 282.5C910.5 282.167 909.5 282.833 908.5 284.5C907.5 286.167 906 286.667 904 286C902 285.333 900.833 277.5 900.5 262.5C900.333 255 900.167 247.5 900 240C901.5 240 903 240 904.5 240C907.5 240 909.333 239.333 910 238C910.667 236.667 910.833 235.667 910.5 235C910.167 234.333 908.333 234 905 234C903.333 234 901.667 234 900 234C900 231 900 228 900 225C900 219 899.5 215.833 898.5 215.5C898 215.333 897.5 215.167 897 215C896.167 217.5 895.333 220 894.5 222.5Z" fill="#000000" fill-rule="evenodd" filter="url(#Filter_15)" stroke="none" vectornator:shadowAngle="1.5708" vectornator:shadowColor="#000000" vectornator:shadowOffset="8" vectornator:shadowOpacity="1" vectornator:shadowRadius="16"/>
<path d="M1050 232.5C1046 234.833 1044 236.5 1044 237.5C1044 238.5 1045.17 239.333 1047.5 240C1049.83 240.667 1051.17 242.5 1051.5 245.5C1051.83 248.5 1052 255.833 1052 267.5C1052 279.167 1051 285.5 1049 286.5C1047 287.5 1045.83 288.5 1045.5 289.5C1045.33 290 1045.17 290.5 1045 291C1049 291 1053 291 1057 291C1061 291 1065 291 1069 291C1068.83 290.5 1068.67 290 1068.5 289.5C1068.17 288.5 1066.83 287.5 1064.5 286.5C1062.17 285.5 1060.67 278.667 1060 266C1059.33 253.333 1059.5 246.167 1060.5 244.5C1061.5 242.833 1063.33 241.167 1066 239.5C1068.67 237.833 1071.17 237.5 1073.5 238.5C1075.83 239.5 1077.33 241.833 1078 245.5C1078.67 249.167 1079 256.667 1079 268C1079 279.333 1078.67 285.5 1078 286.5C1077.33 287.5 1076.17 288 1074.5 288C1073.67 288 1072.83 288 1072 288C1072 288.333 1072 288.667 1072 289C1072 289.333 1072 289.667 1072 290C1076 290 1080 290 1084 290C1088 290 1092 290 1096 290C1094.67 288.667 1093.33 287.333 1092 286C1089.33 283.333 1088 276.667 1088 266C1088 255.333 1087.33 247.167 1086 241.5C1084.67 235.833 1083.17 232.333 1081.5 231C1079.83 229.667 1077.67 229 1075 229C1072.33 229 1069.17 230.833 1065.5 234.5C1063.67 236.333 1061.83 238.167 1060 240C1060 238.333 1060 236.667 1060 235C1060 231.667 1059.33 229.833 1058 229.5C1056.67 229.167 1054 230.167 1050 232.5Z" fill="#000000" fill-rule="evenodd" filter="url(#Filter_16)" stroke="none" vectornator:shadowAngle="1.5708" vectornator:shadowColor="#000000" vectornator:shadowOffset="8" vectornator:shadowOpacity="1" vectornator:shadowRadius="16"/>
<path d="M1023.5 233.5C1019.17 235.833 1017 237.5 1017 238.5C1017 239 1017 239.5 1017 240C1018 239.833 1019 239.667 1020 239.5C1022 239.167 1023.5 241.333 1024.5 246C1025.5 250.667 1026 258.167 1026 268.5C1026 278.833 1024.67 285 1022 287C1019.33 289 1018.17 290.333 1018.5 291C1018.83 291.667 1022.83 291.833 1030.5 291.5C1034.33 291.333 1038.17 291.167 1042 291C1041.83 290.5 1041.67 290 1041.5 289.5C1041.17 288.5 1040.17 288 1038.5 288C1036.83 288 1035.83 287.667 1035.5 287C1035.17 286.333 1034.83 277.5 1034.5 260.5C1034.17 243.5 1033.83 234.167 1033.5 232.5C1033.17 230.833 1032.5 230 1031.5 230C1030.5 230 1027.83 231.167 1023.5 233.5Z" fill="#000000" fill-rule="evenodd" filter="url(#Filter_17)" stroke="none" vectornator:shadowAngle="1.5708" vectornator:shadowColor="#000000" vectornator:shadowOffset="8" vectornator:shadowOpacity="1" vectornator:shadowRadius="16"/>
<path d="M966 235C962 237.667 960 239.333 960 240C960 240.333 960 240.667 960 241C961 241 962 241 963 241C965 241 966.333 242 967 244C967.667 246 968 253.667 968 267C968 280.333 967.667 287.5 967 288.5C966.333 289.5 965.167 290.167 963.5 290.5C962.667 290.667 961.833 290.833 961 291C961.333 291.5 961.667 292 962 292.5C962.667 293.5 966.667 293.667 974 293C977.667 292.667 981.333 292.333 985 292C983.833 291.167 982.667 290.333 981.5 289.5C979.167 287.833 977.833 277.833 977.5 259.5C977.167 241.167 976.167 231.833 974.5 231.5C972.833 231.167 970 232.333 966 235Z" fill="#000000" fill-rule="evenodd" filter="url(#Filter_18)" stroke="none" vectornator:shadowAngle="1.5708" vectornator:shadowColor="#000000" vectornator:shadowOffset="8" vectornator:shadowOpacity="1" vectornator:shadowRadius="16"/>
<path d="M375 239C371 241 369 242.667 369 244C369 245.333 370.167 246.167 372.5 246.5C374.833 246.833 376.167 252 376.5 262C376.833 272 377 279.333 377 284C377 288.667 376.667 291.667 376 293C375.333 294.333 374 295.167 372 295.5C371 295.667 370 295.833 369 296C369.167 296.5 369.333 297 369.5 297.5C369.833 298.5 373.833 298.833 381.5 298.5C385.333 298.333 389.167 298.167 393 298C392.833 297.5 392.667 297 392.5 296.5C392.167 295.5 391.333 295 390 295C388.667 295 387.667 294.5 387 293.5C386.333 292.5 385.833 282.667 385.5 264C385.167 245.333 384.333 236 383 236C381.667 236 379 237 375 239Z" fill="#000000" fill-rule="evenodd" filter="url(#Filter_19)" stroke="none" vectornator:shadowAngle="1.5708" vectornator:shadowColor="#000000" vectornator:shadowOffset="8" vectornator:shadowOpacity="1" vectornator:shadowRadius="16"/>
<path d="M404 239.5C401.333 241.833 399.833 245.667 399.5 251C399.167 256.333 400.333 260.833 403 264.5C405.667 268.167 409.333 271.667 414 275C418.667 278.333 421.333 281.667 422 285C422.667 288.333 422 291 420 293C418 295 416 295.833 414 295.5C412 295.167 410 294 408 292C406 290 404.667 287.5 404 284.5C403.333 281.5 402.5 279.5 401.5 278.5C401 278 400.5 277.5 400 277C399.833 280.5 399.667 284 399.5 287.5C399.167 294.5 402.167 298.5 408.5 299.5C414.833 300.5 419.5 300 422.5 298C425.5 296 427.667 293.333 429 290C430.333 286.667 431 283.833 431 281.5C431 279.167 429.333 275.667 426 271C422.667 266.333 418.667 262.5 414 259.5C409.333 256.5 406.667 253.833 406 251.5C405.333 249.167 405.5 247 406.5 245C407.5 243 409.5 241.833 412.5 241.5C415.5 241.167 418 242.167 420 244.5C422 246.833 423.167 249.5 423.5 252.5C423.833 255.5 424.5 257 425.5 257C426 257 426.5 257 427 257C426.833 253.5 426.667 250 426.5 246.5C426.333 243 426.167 239.5 426 236C425.5 236.333 425 236.667 424.5 237C423.5 237.667 420.5 237.667 415.5 237C410.5 236.333 406.667 237.167 404 239.5Z" fill="#000000" fill-rule="evenodd" filter="url(#Filter_20)" stroke="none" vectornator:shadowAngle="1.5708" vectornator:shadowColor="#000000" vectornator:shadowOffset="8" vectornator:shadowOpacity="1" vectornator:shadowRadius="16"/>
<path d="M601.5 239C601.333 239.667 601.167 240.333 601 241C601.667 241 602.333 241 603 241C604.333 241 605.667 241.833 607 243.5C608.333 245.167 609 251.833 609 263.5C609 275.167 609.5 283.333 610.5 288C611.5 292.667 612.667 295.667 614 297C615.333 298.333 617.167 299.167 619.5 299.5C621.833 299.833 625.167 298.333 629.5 295C631.667 293.333 633.833 291.667 636 290C635.833 291.5 635.667 293 635.5 294.5C635.167 297.5 635.5 299.167 636.5 299.5C637.5 299.833 640 299 644 297C648 295 650.167 293.167 650.5 291.5C650.667 290.667 650.833 289.833 651 289C650.167 289.167 649.333 289.333 648.5 289.5C646.833 289.833 645.667 289.5 645 288.5C644.333 287.5 643.833 279 643.5 263C643.167 247 642.667 238.667 642 238C641.333 237.333 638.667 237.333 634 238C631.667 238.333 629.333 238.667 627 239C628.333 240 629.667 241 631 242C633.667 244 635 251.333 635 264C635 276.667 634 284.167 632 286.5C630 288.833 628 290.167 626 290.5C624 290.833 622.333 290.5 621 289.5C619.667 288.5 618.667 286.667 618 284C617.333 281.333 617 273.167 617 259.5C617 245.833 614.5 238.667 609.5 238C604.5 237.333 601.833 237.667 601.5 239Z" fill="#000000" fill-rule="evenodd" filter="url(#Filter_21)" stroke="none" vectornator:shadowAngle="1.5708" vectornator:shadowColor="#000000" vectornator:shadowOffset="8" vectornator:shadowOpacity="1" vectornator:shadowRadius="16"/>
<path d="M651.5 239C651.167 240.333 652.333 241.667 655 243C657.667 244.333 660.833 248.333 664.5 255C668.167 261.667 670 265.667 670 267C670 268.333 668.833 271.167 666.5 275.5C664.167 279.833 661.167 284.5 657.5 289.5C655.667 292 653.833 294.5 652 297C654.667 297 657.333 297 660 297C662.667 297 665.333 297 668 297C667.333 296.333 666.667 295.667 666 295C664.667 293.667 664 292.167 664 290.5C664 288.833 665.667 285.5 669 280.5C670.667 278 672.333 275.5 674 273C675.333 275.833 676.667 278.667 678 281.5C680.667 287.167 682 290.5 682 291.5C682 292.5 681.167 293.333 679.5 294C677.833 294.667 677.167 295.5 677.5 296.5C677.833 297.5 681.667 298 689 298C692.667 298 696.333 298 700 298C700 297.333 700 296.667 700 296C700 294.667 699 293.667 697 293C695 292.333 691.333 287.333 686 278C680.667 268.667 679 261.667 681 257C683 252.333 685.833 248.167 689.5 244.5C691.333 242.667 693.167 240.833 695 239C694.5 238.667 694 238.333 693.5 238C692.5 237.333 689.833 237 685.5 237C681.167 237 678.833 237.667 678.5 239C678.167 240.333 678.5 241.167 679.5 241.5C680.5 241.833 681 242.833 681 244.5C681 246.167 680 248.667 678 252C677 253.667 676 255.333 675 257C674.167 255.167 673.333 253.333 672.5 251.5C670.833 247.833 670.5 244.667 671.5 242C672 240.667 672.5 239.333 673 238C669.5 237.833 666 237.667 662.5 237.5C655.5 237.167 651.833 237.667 651.5 239Z" fill="#000000" fill-rule="evenodd" filter="url(#Filter_22)" stroke="none" vectornator:shadowAngle="1.5708" vectornator:shadowColor="#000000" vectornator:shadowOffset="8" vectornator:shadowOpacity="1" vectornator:shadowRadius="16"/>
<path d="M861.375 233.625C859.792 233.708 858.333 234 857 234.5C854.333 235.5 851.667 237.833 849 241.5C846.333 245.167 844.5 250.667 843.5 258C842.5 265.333 842.5 271.167 843.5 275.5C844.5 279.833 845.833 283.5 847.5 286.5C849.167 289.5 850.667 291.667 852 293C853.333 294.333 856 295.333 860 296C864 296.667 867.167 296.5 869.5 295.5C871.833 294.5 873.667 293 875 291C876.333 289 877.667 286.5 879 283.5C880.333 280.5 881 277.833 881 275.5C881 274.333 881 273.167 881 272C880.5 272 880 272 879.5 272C879 272 878.5 272 878 272C878 272.667 878 273.333 878 274C878 275.333 877.167 277.333 875.5 280C873.833 282.667 872.333 284.333 871 285C869.667 285.667 867.833 285.833 865.5 285.5C863.167 285.167 860.667 283.833 858 281.5C855.333 279.167 853.333 274.833 852 268.5C851.333 265.333 850.667 262.167 850 259C854.667 258.833 859.333 258.667 864 258.5C873.333 258.167 878.5 257.833 879.5 257.5C880.5 257.167 881 255.833 881 253.5C881 251.167 880.5 248.5 879.5 245.5C878.5 242.5 877 240 875 238C873 236 870.167 234.667 866.5 234C864.667 233.667 862.958 233.542 861.375 233.625ZM861 239C863 239 864.667 239.667 866 241C867.333 242.333 868.167 244.833 868.5 248.5C868.667 250.333 868.833 252.167 869 254C866 254 863 254 860 254C857 254 854 254 851 254C851.167 252.333 851.333 250.667 851.5 249C851.833 245.667 853 243.167 855 241.5C857 239.833 859 239 861 239Z" fill="#000000" fill-rule="evenodd" filter="url(#Filter_23)" stroke="none" vectornator:shadowAngle="1.5708" vectornator:shadowColor="#000000" vectornator:shadowOffset="8" vectornator:shadowOpacity="1" vectornator:shadowRadius="16"/>
<path d="M723.125 235.5C721.708 235.5 720.333 235.667 719 236C716.333 236.667 713.5 238.833 710.5 242.5C707.5 246.167 705.667 249.167 705 251.5C704.333 253.833 704 258.667 704 266C704 273.333 704.833 279.333 706.5 284C708.167 288.667 710 292 712 294C714 296 717 297.333 721 298C725 298.667 728.5 297.833 731.5 295.5C734.5 293.167 737 289 739 283C740 280 741 277 742 274C741.333 274 740.667 274 740 274C738.667 274 737.5 275.667 736.5 279C735.5 282.333 734.333 284.5 733 285.5C731.667 286.5 729.5 287 726.5 287C723.5 287 720.5 285.167 717.5 281.5C714.5 277.833 712.667 273.5 712 268.5C711.667 266 711.333 263.5 711 261C716 260.833 721 260.667 726 260.5C736 260.167 741.167 259.333 741.5 258C741.833 256.667 741.167 253.667 739.5 249C737.833 244.333 736.167 241.167 734.5 239.5C732.833 237.833 730.5 236.667 727.5 236C726 235.667 724.542 235.5 723.125 235.5ZM721.5 241C723.167 241 724.667 241.5 726 242.5C727.333 243.5 728.333 246 729 250C729.333 252 729.667 254 730 256C726.833 256 723.667 256 720.5 256C717.333 256 714.167 256 711 256C711.333 254.5 711.667 253 712 251.5C712.667 248.5 714 246 716 244C718 242 719.833 241 721.5 241Z" fill="#000000" fill-rule="evenodd" filter="url(#Filter_24)" stroke="none" vectornator:shadowAngle="1.5708" vectornator:shadowColor="#000000" vectornator:shadowOffset="8" vectornator:shadowOpacity="1" vectornator:shadowRadius="16"/>
<path d="M551.5 236.75C549.833 236.917 548.333 237.333 547 238C544.333 239.333 541.833 241.833 539.5 245.5C537.167 249.167 535.667 253.333 535 258C534.333 262.667 534.167 267.5 534.5 272.5C534.833 277.5 536.333 282.667 539 288C541.667 293.333 544.333 296.667 547 298C549.667 299.333 552.167 300 554.5 300C556.833 300 559.5 298.833 562.5 296.5C565.5 294.167 567.833 291.167 569.5 287.5C571.167 283.833 572 280.833 572 278.5C572 277.333 572 276.167 572 275C571.5 275 571 275 570.5 275C570 275 569.5 275 569 275C569 275.667 569 276.333 569 277C569 278.333 568.167 280.333 566.5 283C564.833 285.667 562.5 287.333 559.5 288C556.5 288.667 553.5 287.667 550.5 285C547.5 282.333 545.167 277.833 543.5 271.5C542.667 268.333 541.833 265.167 541 262C546.167 261.833 551.333 261.667 556.5 261.5C566.833 261.167 572 259.667 572 257C572 254.333 571.333 251.333 570 248C568.667 244.667 567.167 242.167 565.5 240.5C563.833 238.833 561 237.667 557 237C555 236.667 553.167 236.583 551.5 236.75ZM552 242C554 242 555.667 242.5 557 243.5C558.333 244.5 559.333 246.833 560 250.5C560.333 252.333 560.667 254.167 561 256C557.667 256 554.333 256 551 256C547.667 256 544.333 256 541 256C541.5 254.5 542 253 542.5 251.5C543.5 248.5 544.833 246.167 546.5 244.5C548.167 242.833 550 242 552 242Z" fill="#000000" fill-rule="evenodd" filter="url(#Filter_25)" stroke="none" vectornator:shadowAngle="1.5708" vectornator:shadowColor="#000000" vectornator:shadowOffset="8" vectornator:shadowOpacity="1" vectornator:shadowRadius="16"/>
<path d="M929.875 232.375C928.292 232.458 927 232.667 926 233C924 233.667 922.333 234.833 921 236.5C919.667 238.167 918.667 239.667 918 241C917.333 242.333 917.167 244.667 917.5 248C917.833 251.333 919.167 253 921.5 253C923.833 253 925.167 250.833 925.5 246.5C925.833 242.167 926.667 239.5 928 238.5C929.333 237.5 930.833 237 932.5 237C934.167 237 935.667 237.5 937 238.5C938.333 239.5 939.333 242.167 940 246.5C940.667 250.833 938.5 254.333 933.5 257C928.5 259.667 924.833 262.167 922.5 264.5C920.167 266.833 918.333 269.667 917 273C915.667 276.333 915.167 279.333 915.5 282C915.833 284.667 917.167 287.5 919.5 290.5C921.833 293.5 924.333 295 927 295C929.667 295 932.5 293.667 935.5 291C937 289.667 938.5 288.333 940 287C940.333 287.833 940.667 288.667 941 289.5C941.667 291.167 943 292.5 945 293.5C947 294.5 949.667 293.333 953 290C956.333 286.667 958 284.333 958 283C958 282.333 958 281.667 958 281C957.333 281.667 956.667 282.333 956 283C954.667 284.333 953.5 285 952.5 285C951.5 285 950.833 284.333 950.5 283C950.167 281.667 949.833 274.167 949.5 260.5C949.167 246.833 947.833 238.833 945.5 236.5C943.167 234.167 939.833 232.833 935.5 232.5C933.333 232.333 931.458 232.292 929.875 232.375ZM940 259C940.333 259 940.667 259 941 259C941 262.667 941 266.333 941 270C941 277.333 940.333 281.667 939 283C937.667 284.333 935.833 285.333 933.5 286C931.167 286.667 929.167 286.167 927.5 284.5C925.833 282.833 925 280 925 276C925 272 927.333 268.167 932 264.5C936.667 260.833 939.333 259 940 259Z" fill="#000000" fill-rule="evenodd" filter="url(#Filter_26)" stroke="none" vectornator:shadowAngle="1.5708" vectornator:shadowColor="#000000" vectornator:shadowOffset="8" vectornator:shadowOpacity="1" vectornator:shadowRadius="16"/>
<path d="M1122 227.5C1118.67 227.167 1115.5 227.667 1112.5 229C1109.5 230.333 1107.17 232.167 1105.5 234.5C1103.83 236.833 1102.83 241 1102.5 247C1102.17 253 1103.33 258 1106 262C1108.67 266 1108.83 269.833 1106.5 273.5C1104.17 277.167 1103 279.833 1103 281.5C1103 283.167 1103.67 285 1105 287C1106.33 289 1106 291.5 1104 294.5C1102 297.5 1100.83 300.833 1100.5 304.5C1100.17 308.167 1101.5 311.167 1104.5 313.5C1107.5 315.833 1110.83 317.333 1114.5 318C1118.17 318.667 1121.83 318.667 1125.5 318C1129.17 317.333 1132.83 315.667 1136.5 313C1140.17 310.333 1142.67 307.5 1144 304.5C1145.33 301.5 1146 298.167 1146 294.5C1146 290.833 1144.67 287.667 1142 285C1139.33 282.333 1133.83 280.833 1125.5 280.5C1117.17 280.167 1112.5 279.667 1111.5 279C1110.5 278.333 1110 277.5 1110 276.5C1110 275.5 1110.5 274.167 1111.5 272.5C1112.5 270.833 1115.33 270 1120 270C1124.67 270 1128.33 268.833 1131 266.5C1133.67 264.167 1135.5 262 1136.5 260C1137.5 258 1137.67 253.667 1137 247C1136.67 243.667 1136.33 240.333 1136 237C1137.33 237 1138.67 237 1140 237C1142.67 237 1144.17 236 1144.5 234C1144.67 233 1144.83 232 1145 231C1142.67 231 1140.33 231 1138 231C1133.33 231 1130.33 230.5 1129 229.5C1127.67 228.5 1125.33 227.833 1122 227.5ZM1119.5 231C1121.17 231 1122.83 231.833 1124.5 233.5C1126.17 235.167 1127.33 237.167 1128 239.5C1128.67 241.833 1129 246 1129 252C1129 258 1127.5 262 1124.5 264C1121.5 266 1118.67 265.5 1116 262.5C1113.33 259.5 1111.67 256.167 1111 252.5C1110.33 248.833 1110 245.667 1110 243C1110 240.333 1111.17 237.667 1113.5 235C1115.83 232.333 1117.83 231 1119.5 231ZM1119.03 290.781C1120.93 290.76 1123.08 290.833 1125.5 291C1135.17 291.667 1140.33 293.167 1141 295.5C1141.67 297.833 1140.5 300.667 1137.5 304C1134.5 307.333 1130.17 309.167 1124.5 309.5C1118.83 309.833 1114.5 309 1111.5 307C1108.5 305 1107 302.833 1107 300.5C1107 298.167 1107.67 295.833 1109 293.5C1110 291.75 1113.34 290.844 1119.03 290.781Z" fill="#000000" fill-rule="evenodd" filter="url(#Filter_27)" stroke="none" vectornator:shadowAngle="1.5708" vectornator:shadowColor="#000000" vectornator:shadowOffset="8" vectornator:shadowOpacity="1" vectornator:shadowRadius="16"/>
<path d="M643.5 326C553.833 327.333 487.5 329.167 444.5 331.5C401.5 333.833 379.667 335.5 379 336.5C378.667 337 378.333 337.5 378 338C386.833 338.5 395.667 339 404.5 339.5C422.167 340.5 471.5 340.667 552.5 340C633.5 339.333 694.667 337.833 736 335.5C777.333 333.167 805 331.167 819 329.5C833 327.833 840.333 326.5 841 325.5C841.333 325 841.667 324.5 842 324C831.333 324 820.667 324 810 324C788.667 324 733.167 324.667 643.5 326Z" fill="#000000" fill-rule="evenodd" filter="url(#Filter_28)" stroke="none" vectornator:shadowAngle="1.5708" vectornator:shadowColor="#000000" vectornator:shadowOffset="8" vectornator:shadowOpacity="1" vectornator:shadowRadius="16"/>
<path d="M289.292 239.931C285.292 241.931 283.292 243.598 283.292 244.931C283.292 246.265 284.458 247.098 286.792 247.431C289.125 247.765 290.458 252.931 290.792 262.931C291.125 272.931 291.292 280.265 291.292 284.931C291.292 289.598 290.958 292.598 290.292 293.931C289.625 295.265 288.292 296.098 286.292 296.431C285.292 296.598 284.292 296.765 283.292 296.931C283.458 297.431 283.625 297.931 283.792 298.431C284.125 299.431 288.125 299.765 295.792 299.431C299.625 299.265 303.458 299.098 307.292 298.931C307.125 298.431 306.958 297.931 306.792 297.431C306.458 296.431 305.625 295.931 304.292 295.931C302.958 295.931 301.958 295.431 301.292 294.431C300.625 293.431 300.125 283.598 299.792 264.931C299.458 246.265 298.625 236.931 297.292 236.931C295.958 236.931 293.292 237.931 289.292 239.931Z" fill="#000000" fill-rule="evenodd" filter="url(#Filter_29)" stroke="none" vectornator:shadowAngle="1.5708" vectornator:shadowColor="#000000" vectornator:shadowOffset="8" vectornator:shadowOpacity="1" vectornator:shadowRadius="16"/>
</g>
</svg>
